<svg width="252" height="80" viewBox="0 0 252 80" fill="none" xmlns="http://www.w3.org/2000/svg">
<path fill-rule="evenodd" clip-rule="evenodd" d="M142.725 45.3648V36.2129H148.611V37.4453H144.193V40.1069H148.205V41.3396H144.193V45.3648H142.725Z" fill="white"/>
<path fill-rule="evenodd" clip-rule="evenodd" d="M154.802 44.2113H154.737C154.449 44.9194 153.898 45.5222 152.784 45.5222C151.42 45.5222 150.502 44.5915 150.502 42.9525V38.5996H151.931V42.7427C151.931 43.8179 152.416 44.3553 153.334 44.3553C154.069 44.3553 154.802 43.9751 154.802 43.1884V38.5996H156.232V45.3651H154.802V44.2113Z" fill="white"/>
<path fill-rule="evenodd" clip-rule="evenodd" d="M158.438 45.3645V38.599H159.867V39.7528H159.932C160.22 39.0447 160.772 38.4414 161.886 38.4414C163.249 38.4414 164.167 39.3726 164.167 41.0114V45.3645H162.738V41.2212C162.738 40.1462 162.253 39.6083 161.335 39.6083C160.601 39.6083 159.867 39.9888 159.867 40.7755V45.3645H158.438Z" fill="white"/>
<path fill-rule="evenodd" clip-rule="evenodd" d="M170.608 43.1095V40.8542C170.608 40.0281 169.9 39.6085 169.074 39.6085C167.999 39.6085 167.382 40.3297 167.382 41.4312V42.5326C167.382 43.634 167.999 44.355 169.074 44.355C169.9 44.355 170.608 43.9354 170.608 43.1095ZM170.608 44.2109H170.53C170.136 45.024 169.481 45.5219 168.484 45.5219C166.898 45.5219 165.875 44.3026 165.875 41.9819C165.875 39.6612 166.898 38.4416 168.484 38.4416C169.481 38.4416 170.136 38.94 170.53 39.7528H170.608V35.6621H172.037V45.3647H170.608V44.2109Z" fill="white"/>
<path fill-rule="evenodd" clip-rule="evenodd" d="M178.124 43.3455V42.3619H176.852C175.804 42.3619 175.305 42.6897 175.305 43.2928V43.555C175.305 44.1581 175.777 44.4731 176.538 44.4731C177.455 44.4731 178.124 44.014 178.124 43.3455ZM179.527 45.3645C178.715 45.3645 178.308 44.9055 178.229 44.2236H178.164C177.901 45.0366 177.193 45.5219 176.132 45.5219C174.755 45.5219 173.863 44.7483 173.863 43.4762C173.863 42.1652 174.82 41.4571 176.826 41.4571H178.124V40.9326C178.124 40.0278 177.639 39.5559 176.669 39.5559C175.804 39.5559 175.292 39.9233 174.925 40.4869L174.073 39.7921C174.453 39.0576 175.371 38.4414 176.8 38.4414C178.505 38.4414 179.554 39.2938 179.554 40.8409V44.2369H180.405V45.3645H179.527Z" fill="white"/>
<path fill-rule="evenodd" clip-rule="evenodd" d="M187.751 40.0412L186.636 40.6443C186.401 40.015 185.902 39.6216 185.115 39.6216C184.04 39.6216 183.411 40.3428 183.411 41.4178V42.5455C183.411 43.6074 184.027 44.3419 185.141 44.3419C185.981 44.3419 186.492 43.9224 186.806 43.2667L187.855 43.909C187.436 44.84 186.596 45.4824 185.246 45.5219L185.115 46.1248L185.168 46.1774C185.351 46.1248 185.548 46.0857 185.732 46.0857C186.243 46.0857 186.65 46.3743 186.65 46.9771C186.65 47.7769 185.902 48.1048 185.076 48.1048C184.289 48.1048 183.843 47.8031 183.647 47.554L184.185 46.9378C184.341 47.1345 184.617 47.305 185.01 47.305C185.338 47.305 185.587 47.1871 185.587 46.925C185.587 46.715 185.43 46.4921 184.657 46.4002L184.329 46.3609L184.512 45.4695C182.873 45.22 181.916 43.909 181.916 41.9817C181.916 39.8183 183.122 38.4414 185.115 38.4414C186.505 38.4414 187.331 39.0971 187.751 40.0412Z" fill="white"/>
<path fill-rule="evenodd" clip-rule="evenodd" d="M193.865 43.3456V42.362H192.593C191.544 42.362 191.045 42.6899 191.045 43.293V43.5551C191.045 44.1582 191.518 44.4732 192.278 44.4732C193.196 44.4732 193.865 44.0141 193.865 43.3456ZM192.528 37.1437C192.134 36.947 191.832 36.842 191.557 36.842C191.269 36.842 191.059 36.9599 190.796 37.1832L190.259 36.5013C190.521 36.0946 190.967 35.7539 191.609 35.7539C192.042 35.7539 192.343 35.911 192.632 36.0551C193.026 36.252 193.327 36.3568 193.602 36.3568C193.89 36.3568 194.1 36.2389 194.363 36.016L194.901 36.698C194.638 37.1044 194.193 37.4451 193.55 37.4451C193.117 37.4451 192.816 37.2877 192.528 37.1437ZM195.268 45.3646C194.455 45.3646 194.048 44.9056 193.969 44.2237H193.904C193.642 45.0368 192.934 45.522 191.872 45.522C190.495 45.522 189.604 44.7484 189.604 43.4763C189.604 42.1653 190.56 41.4572 192.567 41.4572H193.865V40.9327C193.865 40.028 193.379 39.556 192.409 39.556C191.544 39.556 191.033 39.9234 190.665 40.487L189.813 39.7922C190.194 39.0577 191.111 38.4415 192.54 38.4415C194.245 38.4415 195.294 39.2939 195.294 40.841V44.237H196.146V45.3646H195.268Z" fill="white"/>
<path fill-rule="evenodd" clip-rule="evenodd" d="M202.338 42.4931V41.4705C202.338 40.2116 201.656 39.5693 200.62 39.5693C199.585 39.5693 198.903 40.2116 198.903 41.4705V42.4931C198.903 43.7519 199.585 44.3943 200.62 44.3943C201.656 44.3943 202.338 43.7519 202.338 42.4931ZM197.408 41.9819C197.408 39.8183 198.627 38.4414 200.62 38.4414C202.613 38.4414 203.832 39.8183 203.832 41.9819C203.832 44.1452 202.613 45.5219 200.62 45.5219C198.627 45.5219 197.408 44.1452 197.408 41.9819Z" fill="white"/>
<path fill-rule="evenodd" clip-rule="evenodd" d="M147.288 58.2728V57.1714C147.288 56.07 146.671 55.3488 145.596 55.3488C144.77 55.3488 144.062 55.7683 144.062 56.5945V58.8497C144.062 59.6757 144.77 60.0952 145.596 60.0952C146.671 60.0952 147.288 59.3743 147.288 58.2728ZM142.633 54.3393H144.062V55.4931H144.141C144.534 54.6802 145.189 54.1816 146.186 54.1816C147.772 54.1816 148.795 55.4014 148.795 57.7221C148.795 60.0428 147.772 61.2621 146.186 61.2621C145.189 61.2621 144.534 60.764 144.141 59.9512H144.062V63.7273H142.633V54.3393Z" fill="white"/>
<path fill-rule="evenodd" clip-rule="evenodd" d="M154.513 59.0857V58.1021H153.241C152.192 58.1021 151.694 58.43 151.694 59.0331V59.2952C151.694 59.8983 152.166 60.2133 152.926 60.2133C153.844 60.2133 154.513 59.7543 154.513 59.0857ZM155.916 61.1047C155.103 61.1047 154.697 60.6457 154.618 59.9638H154.552C154.29 60.7769 153.582 61.2621 152.52 61.2621C151.143 61.2621 150.252 60.4886 150.252 59.2164C150.252 57.9055 151.209 57.1974 153.215 57.1974H154.513V56.6728C154.513 55.7681 154.028 55.2962 153.057 55.2962C152.192 55.2962 151.681 55.6635 151.314 56.2271L150.462 55.5324C150.842 54.7978 151.759 54.1816 153.189 54.1816C154.893 54.1816 155.942 55.034 155.942 56.5812V59.9771H156.794V61.1047H155.916Z" fill="white"/>
<path fill-rule="evenodd" clip-rule="evenodd" d="M158.332 59.9515H160.128V55.4934H158.332V54.3398H161.558V56.136H161.636C161.898 55.1917 162.488 54.3398 163.865 54.3398H164.678V55.7032H163.34C162.174 55.7032 161.558 56.4767 161.558 57.4208V59.9515H164.009V61.1053H158.332V59.9515Z" fill="white"/>
<path fill-rule="evenodd" clip-rule="evenodd" d="M170.253 59.0857V58.1021H168.981C167.933 58.1021 167.434 58.43 167.434 59.0331V59.2952C167.434 59.8983 167.906 60.2133 168.666 60.2133C169.584 60.2133 170.253 59.7543 170.253 59.0857ZM171.656 61.1047C170.844 61.1047 170.437 60.6457 170.358 59.9638H170.292C170.03 60.7769 169.322 61.2621 168.261 61.2621C166.884 61.2621 165.992 60.4886 165.992 59.2164C165.992 57.9055 166.949 57.1974 168.955 57.1974H170.253V56.6728C170.253 55.7681 169.768 55.2962 168.798 55.2962C167.933 55.2962 167.421 55.6635 167.054 56.2271L166.202 55.5324C166.582 54.7978 167.5 54.1816 168.929 54.1816C170.634 54.1816 171.683 55.034 171.683 56.5812V59.9771H172.534V61.1047H171.656Z" fill="white"/>
<path fill-rule="evenodd" clip-rule="evenodd" d="M185.994 59.0857V58.1021H184.722C183.673 58.1021 183.174 58.43 183.174 59.0331V59.2952C183.174 59.8983 183.646 60.2133 184.407 60.2133C185.325 60.2133 185.994 59.7543 185.994 59.0857ZM187.397 61.1047C186.584 61.1047 186.177 60.6457 186.098 59.9638H186.033C185.771 60.7769 185.062 61.2621 184.001 61.2621C182.624 61.2621 181.732 60.4886 181.732 59.2164C181.732 57.9055 182.689 57.1974 184.696 57.1974H185.994V56.6728C185.994 55.7681 185.508 55.2962 184.538 55.2962C183.673 55.2962 183.161 55.6635 182.794 56.2271L181.942 55.5324C182.322 54.7978 183.24 54.1816 184.669 54.1816C186.374 54.1816 187.423 55.034 187.423 56.5812V59.9771H188.275V61.1047H187.397Z" fill="white"/>
<path fill-rule="evenodd" clip-rule="evenodd" d="M197.447 56.5285C197.447 53.4997 198.562 51.7949 200.883 51.7949C202.653 51.7949 203.466 52.818 203.885 54.0633L202.561 54.5092C202.285 53.6699 201.905 53.0147 200.869 53.0147C199.571 53.0147 199.008 54.0766 199.008 55.7549V57.3021C199.008 58.9804 199.571 60.0423 200.869 60.0423C201.905 60.0423 202.285 59.3866 202.561 58.5475L203.885 58.9932C203.466 60.239 202.653 61.2616 200.883 61.2616C198.562 61.2616 197.447 59.5573 197.447 56.5285Z" fill="white"/>
<path fill-rule="evenodd" clip-rule="evenodd" d="M207.925 52.3332V52.0577C207.925 51.6251 208.187 51.2842 208.895 51.2842C209.616 51.2842 209.879 51.6251 209.879 52.0577V52.3332C209.879 52.7656 209.616 53.1068 208.908 53.1068C208.187 53.1068 207.925 52.7656 207.925 52.3332ZM205.879 59.9511H208.187V55.493H205.879V54.3394H209.616V59.9511H211.779V61.1049H205.879V59.9511Z" fill="white"/>
<path fill-rule="evenodd" clip-rule="evenodd" d="M214.655 57.0663V57.158H218.051V57.0268C218.051 55.9649 217.396 55.2701 216.399 55.2701C215.376 55.2701 214.655 56.0175 214.655 57.0663ZM217.094 50.9561L218.667 52.9232L217.907 53.4737L216.36 51.953L214.799 53.4737L214.078 52.9232L215.652 50.9561H217.094ZM213.213 57.7349C213.213 55.5584 214.471 54.1815 216.399 54.1815C218.3 54.1815 219.506 55.5453 219.506 57.5382V58.0761H214.655V58.2989C214.655 59.3608 215.364 60.1082 216.53 60.1082C217.396 60.1082 218.025 59.7015 218.405 59.0725L219.297 59.8592C218.838 60.6458 217.894 61.262 216.504 61.262C214.432 61.262 213.213 59.8853 213.213 57.7349Z" fill="white"/>
<path fill-rule="evenodd" clip-rule="evenodd" d="M221.396 61.1047V54.3393H222.826V55.4931H222.891C223.179 54.785 223.731 54.1816 224.845 54.1816C226.208 54.1816 227.126 55.1128 227.126 56.7516V61.1047H225.697V56.9614C225.697 55.8864 225.212 55.3485 224.294 55.3485C223.56 55.3485 222.826 55.729 222.826 56.5157V61.1047H221.396Z" fill="white"/>
<path fill-rule="evenodd" clip-rule="evenodd" d="M229.137 57.7221C229.137 55.5588 230.343 54.1816 232.336 54.1816C233.726 54.1816 234.552 54.8374 234.972 55.7816L233.857 56.3845C233.621 55.7554 233.122 55.3619 232.336 55.3619C231.261 55.3619 230.631 56.0833 230.631 57.1581V58.2857C230.631 59.3478 231.247 60.0823 232.362 60.0823C233.201 60.0823 233.713 59.6626 234.027 59.0069L235.076 59.6495C234.644 60.5935 233.765 61.2621 232.349 61.2621C230.33 61.2621 229.137 59.8854 229.137 57.7221Z" fill="white"/>
<path fill-rule="evenodd" clip-rule="evenodd" d="M239.405 52.3332V52.0577C239.405 51.6251 239.668 51.2842 240.376 51.2842C241.097 51.2842 241.359 51.6251 241.359 52.0577V52.3332C241.359 52.7656 241.097 53.1068 240.389 53.1068C239.668 53.1068 239.405 52.7656 239.405 52.3332ZM237.359 59.9511H239.668V55.493H237.359V54.3394H241.097V59.9511H243.26V61.1049H237.359V59.9511Z" fill="white"/>
<path fill-rule="evenodd" clip-rule="evenodd" d="M248.955 59.0857V58.1021H247.682C246.634 58.1021 246.135 58.43 246.135 59.0331V59.2952C246.135 59.8983 246.607 60.2133 247.368 60.2133C248.285 60.2133 248.955 59.7543 248.955 59.0857ZM250.357 61.1047C249.545 61.1047 249.138 60.6457 249.059 59.9638H248.994C248.731 60.7769 248.023 61.2621 246.962 61.2621C245.585 61.2621 244.693 60.4886 244.693 59.2164C244.693 57.9055 245.65 57.1974 247.656 57.1974H248.955V56.6728C248.955 55.7681 248.469 55.2962 247.499 55.2962C246.634 55.2962 246.122 55.6635 245.755 56.2271L244.903 55.5324C245.283 54.7978 246.201 54.1816 247.63 54.1816C249.335 54.1816 250.384 55.034 250.384 56.5812V59.9771H251.235V61.1047H250.357Z" fill="white"/>
<path fill-rule="evenodd" clip-rule="evenodd" d="M143.825 72.8066V72.8983H147.221V72.7671C147.221 71.7052 146.565 71.0105 145.568 71.0105C144.546 71.0105 143.825 71.7578 143.825 72.8066ZM142.383 73.4752C142.383 71.2988 143.641 69.9219 145.568 69.9219C147.47 69.9219 148.676 71.2857 148.676 73.2785V73.8164H143.825V74.0393C143.825 75.1012 144.533 75.8485 145.7 75.8485C146.565 75.8485 147.194 75.4419 147.575 74.8128L148.467 75.5995C148.008 76.3862 147.063 77.0023 145.674 77.0023C143.602 77.0023 142.383 75.6257 142.383 73.4752Z" fill="white"/>
<path fill-rule="evenodd" clip-rule="evenodd" d="M162.384 74.8259V73.8424H161.112C160.064 73.8424 159.565 74.1702 159.565 74.7733V75.0355C159.565 75.6386 160.037 75.9535 160.797 75.9535C161.715 75.9535 162.384 75.4945 162.384 74.8259ZM163.787 76.845C162.974 76.845 162.568 76.3859 162.489 75.704H162.423C162.161 76.5171 161.453 77.0024 160.391 77.0024C159.014 77.0024 158.123 76.2288 158.123 74.9566C158.123 73.6457 159.08 72.9376 161.086 72.9376H162.384V72.4131C162.384 71.5083 161.899 71.0364 160.929 71.0364C160.064 71.0364 159.552 71.4038 159.185 71.9674L158.333 71.2726C158.713 70.5381 159.63 69.9219 161.06 69.9219C162.764 69.9219 163.814 70.7743 163.814 72.3214V75.7174H164.665V76.845H163.787Z" fill="white"/>
<path fill-rule="evenodd" clip-rule="evenodd" d="M177.743 68.9255V76.845H176.274V68.9255H173.402V67.6934H180.614V68.9255H177.743Z" fill="white"/>
<path fill-rule="evenodd" clip-rule="evenodd" d="M183.174 72.8066V72.8983H186.571V72.7671C186.571 71.7052 185.915 71.0105 184.918 71.0105C183.896 71.0105 183.174 71.7578 183.174 72.8066ZM181.732 73.4752C181.732 71.2988 182.991 69.9219 184.918 69.9219C186.82 69.9219 188.026 71.2857 188.026 73.2785V73.8164H183.174V74.0393C183.174 75.1012 183.882 75.8485 185.049 75.8485C185.915 75.8485 186.544 75.4419 186.924 74.8128L187.816 75.5995C187.357 76.3862 186.413 77.0023 185.024 77.0023C182.952 77.0023 181.732 75.6257 181.732 73.4752Z" fill="white"/>
<path fill-rule="evenodd" clip-rule="evenodd" d="M189.785 73.4623C189.785 71.299 190.991 69.9219 192.984 69.9219C194.374 69.9219 195.2 70.5776 195.62 71.5219L194.505 72.1247C194.27 71.4957 193.771 71.1021 192.984 71.1021C191.909 71.1021 191.28 71.8235 191.28 72.8983V74.0259C191.28 75.0881 191.896 75.8226 193.011 75.8226C193.85 75.8226 194.361 75.4028 194.676 74.7471L195.725 75.3897C195.292 76.3338 194.413 77.0023 192.997 77.0023C190.978 77.0023 189.785 75.6257 189.785 73.4623Z" fill="white"/>
<path fill-rule="evenodd" clip-rule="evenodd" d="M197.787 76.845V70.0795H199.216V71.2333H199.282C199.57 70.5252 200.121 69.9219 201.236 69.9219C202.599 69.9219 203.517 70.8531 203.517 72.4919V76.845H202.088V72.7016C202.088 71.6266 201.603 71.0888 200.685 71.0888C199.95 71.0888 199.216 71.4693 199.216 72.2559V76.845H197.787Z" fill="white"/>
<path fill-rule="evenodd" clip-rule="evenodd" d="M210.207 73.9735V72.9509C210.207 71.6921 209.525 71.0497 208.489 71.0497C207.454 71.0497 206.772 71.6921 206.772 72.9509V73.9735C206.772 75.2324 207.454 75.8747 208.489 75.8747C209.525 75.8747 210.207 75.2324 210.207 73.9735ZM205.277 73.4624C205.277 71.2988 206.497 69.9219 208.489 69.9219C210.482 69.9219 211.702 71.2988 211.702 73.4624C211.702 75.6257 210.482 77.0024 208.489 77.0024C206.497 77.0024 205.277 75.6257 205.277 73.4624Z" fill="white"/>
<path fill-rule="evenodd" clip-rule="evenodd" d="M213.408 75.6914H215.65V68.2964H213.408V67.1426H217.079V75.6914H219.321V76.8452H213.408V75.6914Z" fill="white"/>
<path fill-rule="evenodd" clip-rule="evenodd" d="M225.947 73.9735V72.9509C225.947 71.6921 225.266 71.0497 224.23 71.0497C223.194 71.0497 222.512 71.6921 222.512 72.9509V73.9735C222.512 75.2324 223.194 75.8747 224.23 75.8747C225.266 75.8747 225.947 75.2324 225.947 73.9735ZM221.018 73.4624C221.018 71.2988 222.237 69.9219 224.23 69.9219C226.223 69.9219 227.442 71.2988 227.442 73.4624C227.442 75.6257 226.223 77.0024 224.23 77.0024C222.237 77.0024 221.018 75.6257 221.018 73.4624Z" fill="white"/>
<path fill-rule="evenodd" clip-rule="evenodd" d="M233.398 72.4656V72.1115C233.398 71.3903 232.965 70.9051 232.047 70.9051C231.129 70.9051 230.697 71.3903 230.697 72.1115V72.4656C230.697 73.1865 231.129 73.6715 232.047 73.6715C232.965 73.6715 233.398 73.1865 233.398 72.4656ZM233.031 76.9237H230.684C230.356 77.0808 230.185 77.3299 230.185 77.6839C230.185 78.1951 230.579 78.6149 231.575 78.6149H232.637C233.712 78.6149 234.302 78.287 234.302 77.6706C234.302 77.212 233.988 76.9237 233.031 76.9237ZM232.086 79.6244C229.752 79.6244 228.939 79.0082 228.939 77.9984C228.939 77.2644 229.372 76.8841 230.12 76.6875V76.5563C229.661 76.3858 229.372 76.0844 229.372 75.5727C229.372 74.9041 229.883 74.6025 230.591 74.4322V74.3668C229.779 73.9865 229.294 73.2653 229.294 72.2951C229.294 70.853 230.382 69.9215 232.047 69.9215C232.519 69.9215 232.952 70.0003 233.319 70.1449V69.9215C233.319 69.3975 233.621 69.0039 234.223 69.0039H235.456V70.1315H233.882V70.4463C234.473 70.853 234.8 71.482 234.8 72.2951C234.8 73.7372 233.712 74.6551 232.047 74.6551C231.746 74.6551 231.47 74.6289 231.208 74.5763C230.893 74.6551 230.5 74.8649 230.5 75.232C230.5 75.6515 230.959 75.7039 231.549 75.7039H233.07C234.892 75.7039 235.639 76.4646 235.639 77.5789C235.639 78.9687 234.473 79.6244 232.086 79.6244Z" fill="white"/>
<path fill-rule="evenodd" clip-rule="evenodd" d="M239.405 68.0725V67.797C239.405 67.3644 239.668 67.0234 240.376 67.0234C241.097 67.0234 241.359 67.3644 241.359 67.797V68.0725C241.359 68.5049 241.097 68.8461 240.389 68.8461C239.668 68.8461 239.405 68.5049 239.405 68.0725ZM237.359 75.6903H239.668V71.2322H237.359V70.0787H241.097V75.6903H243.26V76.8442H237.359V75.6903Z" fill="white"/>
<path fill-rule="evenodd" clip-rule="evenodd" d="M248.955 74.8259V73.8424H247.682C246.634 73.8424 246.135 74.1702 246.135 74.7733V75.0355C246.135 75.6386 246.607 75.9535 247.368 75.9535C248.285 75.9535 248.955 75.4945 248.955 74.8259ZM250.357 76.845C249.545 76.845 249.138 76.3859 249.059 75.704H248.994C248.731 76.5171 248.023 77.0024 246.962 77.0024C245.585 77.0024 244.693 76.2288 244.693 74.9566C244.693 73.6457 245.65 72.9376 247.656 72.9376H248.955V72.4131C248.955 71.5083 248.469 71.0364 247.499 71.0364C246.634 71.0364 246.122 71.4038 245.755 71.9674L244.903 71.2726C245.283 70.5381 246.201 69.9219 247.63 69.9219C249.335 69.9219 250.384 70.7743 250.384 72.3214V75.7174H251.235V76.845H250.357Z" fill="white"/>
<path fill-rule="evenodd" clip-rule="evenodd" d="M21.0802 32.3423H37.1531V39.2554H21.0802V70.0577H37.1531V76.9706H0V70.0577H13.2462V39.2554H0V32.3423H10.3917C11.9681 32.3423 13.2462 31.0644 13.2462 29.488V25.1404C13.2462 23.3739 13.9479 21.6799 15.1969 20.4308L22.6231 13.0047C23.8721 11.7556 25.5662 11.0918 27.3326 11.0918H37.1531V17.967H21.0802V32.3423Z" fill="white"/>
<path fill-rule="evenodd" clip-rule="evenodd" d="M59.0634 11.0918H75.8505V18.0049H52.6924V51.7135H75.8505V58.6263H59.0634C57.2969 58.6263 55.6029 57.9247 54.3539 56.6756L46.8081 49.1299C45.5591 47.8808 44.8574 46.1868 44.8574 44.4204V25.2978C44.8574 23.5313 45.5591 21.8373 46.8081 20.5882L54.3539 13.0425C55.6029 11.7935 57.2969 11.0918 59.0634 11.0918Z" fill="white"/>
<path fill-rule="evenodd" clip-rule="evenodd" d="M96.1466 45.0634V18.0046H83.123V11.0917H93.2923C94.8688 11.0917 96.1466 9.81363 96.1466 8.2372V0.03125H103.981V11.0917H120.872V18.0046H103.981V51.7132H120.872V58.6263H108.846C106.926 58.6263 105.099 57.7972 103.834 56.3517L97.7945 49.4491C96.7321 48.2351 96.1466 46.6767 96.1466 45.0634Z" fill="white"/>
<path fill-rule="evenodd" clip-rule="evenodd" d="M44.8574 76.9705H120.873V70.0586H44.8574V76.9705Z" fill="white"/>
</svg>
